<svg xmlns="http://www.w3.org/2000/svg" viewBox="0 0 512 512" width="100%" height="100%">
  <defs>
    <linearGradient id="grad" x1="0%" y1="0%" x2="100%" y2="100%">
      <stop offset="0%" stop-color="#7c4dff" />
      <stop offset="100%" stop-color="#4a148c" />
    </linearGradient>
  </defs>
  <rect width="512" height="512" rx="115" fill="#0f0f11" />
  <rect x="24" y="24" width="464" height="464" rx="95" fill="none" stroke="rgba(255,255,255,0.08)" stroke-width="8" />
  <g transform="translate(106, 106)">
    <rect x="20" y="40" width="260" height="60" rx="16" fill="url(#grad)" />
    <circle cx="60" cy="70" r="8" fill="#ffffff" />
    <circle cx="90" cy="70" r="8" fill="rgba(255,255,255,0.5)" />
    <line x1="220" y1="70" x2="250" y2="70" stroke="#ffffff" stroke-width="6" stroke-linecap="round" />

    <rect x="20" y="120" width="260" height="60" rx="16" fill="url(#grad)" />
    <circle cx="60" cy="150" r="8" fill="#ffffff" />
    <circle cx="90" cy="150" r="8" fill="rgba(255,255,255,0.5)" />
    <line x1="220" y1="150" x2="250" y2="150" stroke="#ffffff" stroke-width="6" stroke-linecap="round" />

    <rect x="20" y="200" width="260" height="60" rx="16" fill="url(#grad)" />
    <circle cx="60" cy="230" r="8" fill="#ffffff" />
    <circle cx="90" cy="230" r="8" fill="rgba(255,255,255,0.5)" />
    <line x1="220" y1="230" x2="250" y2="230" stroke="#ffffff" stroke-width="6" stroke-linecap="round" />
  </g>
</svg>
